<svg width="22" height="22" viewBox="0 0 22 22" fill="none" xmlns="http://www.w3.org/2000/svg">
<g clip-path="url(#clip0_420_5280)">
<path d="M11 22C17.0751 22 22 17.0751 22 11C22 4.92487 17.0751 0 11 0C4.92487 0 0 4.92487 0 11C0 17.0751 4.92487 22 11 22Z" fill="#3B5998"/>
<path d="M13.7656 11.4305H11.8027V18.6214H8.82891V11.4305H7.41455V8.90338H8.82891V7.26803C8.82891 6.09858 9.38442 4.26733 11.8292 4.26733L14.032 4.27655V6.72958H12.4337C12.1716 6.72958 11.8029 6.86056 11.8029 7.41843V8.90574H14.0254L13.7656 11.4305Z" fill="white"/>
</g>
<defs>
<clipPath id="clip0_420_5280">
<rect width="22" height="22" fill="white"/>
</clipPath>
</defs>
</svg>
